<svg width="128" height="128" viewBox="0 0 128 128" fill="none" xmlns="http://www.w3.org/2000/svg">
<circle cx="64" cy="64" r="60" stroke="#151515" stroke-width="8"/>
<circle cx="64.0001" cy="64" r="49.212" stroke="#372E2A" stroke-width="4"/>
<path d="M65.7232 51.0289L64.0001 48.1049L62.2771 51.0289L46.7473 77.3824L44.9703 80.3978H48.4703H79.5299H83.0299L81.253 77.3824L65.7232 51.0289Z" fill="#1D5637" stroke="#151515" stroke-width="4"/>
<path d="M65.732 40.0729L63.9999 37.0729L62.2679 40.0729L49.5991 62.0157L47.8671 65.0157H51.3312H76.6686H80.1327L78.4007 62.0157L65.732 40.0729Z" fill="#1D5637" stroke="#151515" stroke-width="4"/>
<path d="M65.7232 51.0289L64.0001 48.1049L62.2771 51.0289L46.7473 77.3824L44.9703 80.3978H48.4703H79.5299H83.0299L81.253 77.3824L65.7232 51.0289Z" fill="#1D5637" stroke="#151515" stroke-width="4"/>
<path d="M65.6315 36.6762L64 34.375L62.3685 36.6762L52.8669 50.0776L50.6288 53.2343H54.4985H73.5015H77.3712L75.1331 50.0776L65.6315 36.6762Z" fill="#1D5637" stroke="#151515" stroke-width="4"/>
<path d="M63.9999 41.0729L76.6686 63.0157H51.3312L63.9999 41.0729Z" fill="#1D5637"/>
<circle cx="107.188" cy="64" r="3.65714" fill="#372E2A"/>
<circle cx="64.0002" cy="20.5863" r="3.65714" fill="#372E2A"/>
<circle cx="63.9999" cy="107.669" r="3.65714" fill="#372E2A"/>
<circle cx="20.8117" cy="64" r="3.65714" fill="#372E2A"/>
<rect x="61.7571" y="80.7281" width="4.48571" height="17.2857" fill="#151515" stroke="#151515"/>
</svg>
